<svg width="300" height="300" viewBox="0 0 300 300" fill="none" xmlns="http://www.w3.org/2000/svg">
<g clip-path="url(#clip0_3406_2682)">
<path d="M300 0H0V300H300V0Z" fill="black"/>
<path d="M172.239 238.08L97.1694 238.02H88.3694V62.2998H172.239C187.699 62.2998 202.129 66.2298 215.509 74.0798C228.899 81.9298 239.559 92.5898 247.489 106.06C255.429 119.53 259.389 134.16 259.389 149.94C259.389 161.9 257.049 173.34 252.369 184.24C247.689 195.15 241.419 204.53 233.569 212.38C225.719 220.24 216.419 226.48 205.679 231.12C194.939 235.76 183.789 238.08 172.229 238.08H172.239ZM88.3694 229.29H172.239C186.159 229.29 199.099 225.77 211.059 218.73C223.019 211.69 232.559 202.07 239.679 189.86C246.799 177.65 250.359 164.35 250.359 149.94C250.359 135.53 246.799 122.62 239.679 110.45C232.559 98.2798 222.999 88.6798 210.989 81.6398C198.979 74.5998 186.069 71.0798 172.229 71.0798H88.3594V229.28L88.3694 229.29ZM97.1694 79.8698H172.239C184.529 79.8698 195.979 82.9998 206.599 89.2698C217.219 95.5398 225.659 104.06 231.929 114.84C238.199 125.62 241.329 137.32 241.329 149.94C241.329 162.56 238.199 174.54 231.929 185.4C225.659 196.26 217.219 204.83 206.599 211.1C195.979 217.37 184.519 220.5 172.239 220.5H97.1694V79.8698ZM97.1694 211.71H172.239C182.979 211.71 192.949 208.98 202.149 203.53C211.349 198.08 218.669 190.59 224.119 181.07C229.569 171.55 232.299 161.17 232.299 149.94C232.299 138.71 229.569 128.74 224.119 119.3C218.669 109.86 211.319 102.39 202.089 96.8998C192.859 91.4098 182.899 88.6598 172.239 88.6598H97.1694V211.71ZM105.959 202.92V97.4498H172.239C186.159 97.4498 198.139 102.6 208.189 112.89C218.239 123.19 223.269 135.53 223.269 149.94C223.269 164.35 218.259 177.18 208.249 187.48C198.239 197.78 186.239 202.92 172.239 202.92H105.959ZM114.749 194.13H172.249C183.799 194.13 193.689 189.84 201.909 181.25C210.129 172.66 214.239 162.23 214.239 149.94C214.239 137.65 210.109 127.6 201.849 119.06C193.589 110.52 183.719 106.24 172.249 106.24H114.749V194.13ZM123.539 185.34V115.03H172.249C181.279 115.03 189.039 118.45 195.499 125.28C201.969 132.12 205.209 140.34 205.209 149.94C205.209 159.54 201.989 168.25 195.569 175.09C189.139 181.93 181.369 185.34 172.259 185.34H123.549H123.539ZM132.329 176.55H172.249C178.839 176.55 184.479 173.99 189.159 168.86C193.839 163.73 196.179 157.43 196.179 149.94C196.179 142.45 193.839 136.63 189.159 131.51C184.479 126.39 178.849 123.82 172.249 123.82H132.329V176.55Z" fill="white"/>
<path d="M18.0596 71.08V62.29H149.9V71.08H18.0596ZM18.0596 88.66V79.87H149.9V88.66H18.0596ZM18.0596 106.24V97.45H149.9V106.24H18.0596ZM70.7996 111H79.5896V238.08H70.7996V111ZM88.3696 111H97.1596V238.08H88.3696V111Z" fill="white"/>
<path d="M114.75 105.24H105.96V201.92H114.75V105.24Z" fill="white"/>
</g>
<defs>
<clipPath id="clip0_3406_2682">
<rect width="300" height="300" fill="white"/>
</clipPath>
</defs>
</svg>
