<svg width="568" height="65" viewBox="0 0 568 65" fill="none" xmlns="http://www.w3.org/2000/svg">
<path d="M0.476562 3.125V0.3125H42.6641V3.125H0.476562ZM0.476562 8.75V5.9375H42.6641V8.75H0.476562ZM0.476562 14.375V11.5625H42.6641V14.375H31.4141V65H28.6016V14.375H25.7891V65H22.9766V14.375H20.1641V65H17.3516V14.375H14.5391V65H11.7266V14.375H0.476562ZM77 46.0156L78.1328 43.2031H87.7422L88.875 46.0156H77ZM74.8125 51.6406L75.9062 48.8281H89.9297L91.1406 51.6406H74.8125ZM72.625 57.2656L73.7188 54.4531H92.1562L93.3281 57.2656H72.625ZM49.7734 65H46.7266L72.3125 0.3125H75.3594L100.906 65H97.8984L73.8359 4.10156L49.7734 65ZM74.1875 10.7812L75.7891 14.375L55.7891 65H52.7812L74.1875 10.7812ZM77.3125 18.2031L78.7969 22.0703L61.8828 65H58.8359L77.3125 18.2031ZM80.2812 25.9375L81.7656 29.8828L67.8984 65H64.8906L80.2812 25.9375ZM119.07 65H116.023L90.4766 0.3125H93.4844L119.07 65ZM87.4297 0.3125L113.016 65H110.008L84.4219 0.3125H87.4297ZM81.375 0.3125L106.961 65H103.914L78.3672 0.3125H81.375ZM140.867 0.3125H143.68V65H140.867V0.3125ZM135.242 0.3125H138.055V65H135.242V0.3125ZM129.617 0.3125H132.43V65H129.617V0.3125ZM123.992 0.3125H126.805V65H123.992V0.3125ZM172.977 34.375H189.305C191.987 34.375 194.253 33.4766 196.102 31.6797C197.977 29.8568 198.914 27.2917 198.914 23.9844C198.914 21.5104 197.938 19.2969 195.984 17.3438C194.031 15.3646 191.805 14.375 189.305 14.375H165.164V65H162.352V11.5625H189.305C192.586 11.5625 195.477 12.8255 197.977 15.3516C200.477 17.8776 201.727 20.7552 201.727 23.9844C201.727 27.9688 200.516 31.1719 198.094 33.5938C195.672 35.9896 192.742 37.1875 189.305 37.1875H172.977V34.375ZM172.977 40H189.305C192.013 40 194.513 39.349 196.805 38.0469C199.122 36.7188 200.984 34.8177 202.391 32.3438C203.823 29.8698 204.539 27.0833 204.539 23.9844C204.539 19.974 203.003 16.4323 199.93 13.3594C196.883 10.2865 193.341 8.75 189.305 8.75H159.539V65H156.727V5.9375H189.305C192.456 5.9375 195.424 6.77083 198.211 8.4375C200.997 10.1042 203.211 12.3307 204.852 15.1172C206.518 17.9036 207.352 20.8594 207.352 23.9844C207.352 27.526 206.518 30.7552 204.852 33.6719C203.185 36.5625 200.971 38.8151 198.211 40.4297C195.477 42.0182 192.508 42.8125 189.305 42.8125H172.977V40ZM172.977 45.625H189.305C192.091 45.625 194.76 45.0781 197.312 43.9844C199.865 42.8646 202.078 41.3672 203.953 39.4922C205.854 37.5911 207.365 35.2995 208.484 32.6172C209.604 29.9089 210.164 27.0312 210.164 23.9844C210.164 20.3385 209.214 16.9141 207.312 13.7109C205.411 10.4818 202.846 7.91667 199.617 6.01562C196.414 4.08854 192.977 3.125 189.305 3.125H153.914V65H151.102V0.3125H189.305C193.471 0.3125 197.378 1.40625 201.023 3.59375C204.669 5.75521 207.573 8.65885 209.734 12.3047C211.896 15.9505 212.977 19.8438 212.977 23.9844C212.977 27.6823 212.339 31.0938 211.062 34.2188C209.786 37.3177 208.068 39.8958 205.906 41.9531C203.745 44.0104 201.232 45.612 198.367 46.7578C195.503 47.8776 192.482 48.4375 189.305 48.4375H172.977V45.625ZM170.789 65H167.977V17.1875H189.305C191.154 17.1875 192.742 17.8646 194.07 19.2188C195.424 20.5729 196.102 22.1615 196.102 23.9844C196.102 29.0365 193.836 31.5625 189.305 31.5625H172.977V28.75H189.305C190.555 28.75 191.531 28.3984 192.234 27.6953C192.938 26.9922 193.289 25.7552 193.289 23.9844C193.289 22.8385 192.898 21.888 192.117 21.1328C191.362 20.3776 190.424 20 189.305 20H170.789V65ZM233.211 65H230.398V0.3125H233.211V65ZM227.586 65H224.773V0.3125H227.586V65ZM221.961 65H219.148V0.3125H221.961V65ZM238.836 50.9375H268.758V53.75H238.836V56.5625H268.758V59.375H238.836V62.1875H268.758V65H236.023V0.3125H268.758V3.125H238.836V5.9375H268.758V8.75H238.836V11.5625H268.758V14.375H238.836V25.625H254.188V28.4375H238.836V31.25H254.188V34.0625H238.836V36.875H254.188V39.6875H238.836V50.9375ZM292.586 0.3125H295.398V65H292.586V0.3125ZM286.961 0.3125H289.773V65H286.961V0.3125ZM281.336 0.3125H284.148V65H281.336V0.3125ZM275.711 0.3125H278.523V65H275.711V0.3125ZM345.711 48.125V17.1875C345.711 17.1875 352.104 17.1875 364.891 17.1875C367.99 17.1875 370.646 18.7109 372.859 21.7578C375.099 24.7786 376.219 28.4115 376.219 32.6562C376.219 36.9271 375.099 40.5729 372.859 43.5938C370.646 46.6146 367.99 48.125 364.891 48.125H345.711ZM348.523 45.3125H364.891C367.208 45.3125 369.188 44.0755 370.828 41.6016C372.495 39.1276 373.328 36.1458 373.328 32.6562C373.328 29.1406 372.495 26.1589 370.828 23.7109C369.188 21.237 367.208 20 364.891 20H348.523V45.3125ZM342.898 50.9375H364.891C368.771 50.9375 372.104 49.1536 374.891 45.5859C377.703 41.9922 379.109 37.6823 379.109 32.6562C379.109 29.349 378.458 26.2891 377.156 23.4766C375.88 20.6641 374.148 18.4505 371.961 16.8359C369.799 15.1953 367.443 14.375 364.891 14.375H342.898V50.9375ZM340.086 53.75V11.5625H364.891C367.938 11.5625 370.776 12.5 373.406 14.375C376.036 16.25 378.12 18.8151 379.656 22.0703C381.219 25.2995 382 28.8281 382 32.6562C382 36.4583 381.219 39.987 379.656 43.2422C378.12 46.4974 376.036 49.0625 373.406 50.9375C370.776 52.8125 367.938 53.75 364.891 53.75H340.086ZM337.273 56.5625H364.891C368.458 56.5625 371.766 55.4948 374.812 53.3594C377.885 51.224 380.333 48.3203 382.156 44.6484C383.979 40.9766 384.891 36.9792 384.891 32.6562C384.891 28.3594 383.979 24.375 382.156 20.7031C380.333 17.0052 377.885 14.0885 374.812 11.9531C371.74 9.81771 368.432 8.75 364.891 8.75H337.273V56.5625ZM334.461 59.375V5.9375H364.891C368.953 5.9375 372.742 7.13542 376.258 9.53125C379.773 11.901 382.573 15.1432 384.656 19.2578C386.74 23.3724 387.781 27.8385 387.781 32.6562C387.781 37.474 386.74 41.9401 384.656 46.0547C382.573 50.1693 379.773 53.4245 376.258 55.8203C372.742 58.1901 368.953 59.375 364.891 59.375H334.461ZM331.648 62.1875H364.891C368.302 62.1875 371.596 61.4062 374.773 59.8438C377.951 58.2812 380.698 56.1849 383.016 53.5547C385.333 50.9245 387.182 47.7865 388.562 44.1406C389.969 40.4688 390.672 36.6406 390.672 32.6562C390.672 28.6719 389.969 24.8568 388.562 21.2109C387.182 17.5651 385.333 14.4271 383.016 11.7969C380.698 9.14062 377.951 7.03125 374.773 5.46875C371.596 3.90625 368.302 3.125 364.891 3.125H331.648V62.1875ZM364.891 65H328.836V0.3125H364.891C369.969 0.3125 374.708 1.75781 379.109 4.64844C383.51 7.53906 387.013 11.4714 389.617 16.4453C392.247 21.4193 393.562 26.8229 393.562 32.6562C393.562 37.0312 392.781 41.224 391.219 45.2344C389.682 49.2188 387.625 52.6562 385.047 55.5469C382.469 58.4375 379.409 60.7422 375.867 62.4609C372.352 64.1536 368.693 65 364.891 65ZM423.641 46.0156L424.773 43.2031H434.383L435.516 46.0156H423.641ZM421.453 51.6406L422.547 48.8281H436.57L437.781 51.6406H421.453ZM419.266 57.2656L420.359 54.4531H438.797L439.969 57.2656H419.266ZM396.414 65H393.367L418.953 0.3125H422L447.547 65H444.539L420.477 4.10156L396.414 65ZM420.828 10.7812L422.43 14.375L402.43 65H399.422L420.828 10.7812ZM423.953 18.2031L425.438 22.0703L408.523 65H405.477L423.953 18.2031ZM426.922 25.9375L428.406 29.8828L414.539 65H411.531L426.922 25.9375ZM465.711 65H462.664L437.117 0.3125H440.125L465.711 65ZM434.07 0.3125L459.656 65H456.648L431.062 0.3125H434.07ZM428.016 0.3125L453.602 65H450.555L425.008 0.3125H428.016ZM469.383 3.125V0.3125H511.57V3.125H469.383ZM469.383 8.75V5.9375H511.57V8.75H469.383ZM469.383 14.375V11.5625H511.57V14.375H500.32V65H497.508V14.375H494.695V65H491.883V14.375H489.07V65H486.258V14.375H483.445V65H480.633V14.375H469.383ZM532.039 65H529.227V0.3125H532.039V65ZM526.414 65H523.602V0.3125H526.414V65ZM520.789 65H517.977V0.3125H520.789V65ZM537.664 50.9375H567.586V53.75H537.664V56.5625H567.586V59.375H537.664V62.1875H567.586V65H534.852V0.3125H567.586V3.125H537.664V5.9375H567.586V8.75H537.664V11.5625H567.586V14.375H537.664V25.625H553.016V28.4375H537.664V31.25H553.016V34.0625H537.664V36.875H553.016V39.6875H537.664V50.9375Z" fill="white"/>
</svg>
